<mxfile host="app.diagrams.net" modified="2024-04-26T20:14:47.944Z" agent="Mozilla/5.0 (Windows NT 10.0; Win64; x64; rv:124.0) Gecko/20100101 Firefox/124.0" etag="UePrqsK8sFmpWgn71Gq6" version="24.3.0" type="device">
  <diagram name="Page-1" id="uMqA1R6x-6Gs1QEI-oIA">
    <mxGraphModel dx="2200" dy="1599" grid="0" gridSize="10" guides="1" tooltips="1" connect="1" arrows="1" fold="1" page="0" pageScale="1" pageWidth="827" pageHeight="1169" math="0" shadow="0">
      <root>
        <mxCell id="0" />
        <mxCell id="1" parent="0" />
        <mxCell id="J-PkQWg8F6zkjIdKTjja-1" style="edgeStyle=orthogonalEdgeStyle;rounded=1;orthogonalLoop=1;jettySize=auto;html=1;entryX=1;entryY=0.5;entryDx=0;entryDy=0;elbow=vertical;strokeColor=default;align=center;verticalAlign=middle;fontFamily=Helvetica;fontSize=11;fontColor=default;labelBackgroundColor=default;endArrow=baseDash;endFill=0;endSize=0;curved=0;exitX=0.897;exitY=0;exitDx=0;exitDy=0;exitPerimeter=0;" edge="1" parent="1" source="J-PkQWg8F6zkjIdKTjja-58">
          <mxGeometry relative="1" as="geometry">
            <mxPoint x="250" y="-190" as="targetPoint" />
            <mxPoint x="281" y="493" as="sourcePoint" />
            <Array as="points">
              <mxPoint x="247" y="477" />
              <mxPoint x="308" y="477" />
              <mxPoint x="308" y="-190" />
            </Array>
          </mxGeometry>
        </mxCell>
        <mxCell id="J-PkQWg8F6zkjIdKTjja-2" style="edgeStyle=orthogonalEdgeStyle;rounded=1;orthogonalLoop=1;jettySize=auto;html=1;exitX=-0.002;exitY=1.133;exitDx=0;exitDy=0;entryX=1.013;entryY=0.467;entryDx=0;entryDy=0;strokeColor=default;align=center;verticalAlign=middle;fontFamily=Helvetica;fontSize=11;fontColor=default;labelBackgroundColor=default;elbow=vertical;endArrow=baseDash;endFill=0;endSize=0;curved=0;entryPerimeter=0;exitPerimeter=0;" edge="1" parent="1" source="J-PkQWg8F6zkjIdKTjja-60" target="J-PkQWg8F6zkjIdKTjja-39">
          <mxGeometry relative="1" as="geometry">
            <mxPoint x="3.75" y="332" as="sourcePoint" />
            <mxPoint x="-321" y="392" as="targetPoint" />
            <Array as="points">
              <mxPoint x="-57" y="709" />
              <mxPoint x="-57" y="586" />
            </Array>
          </mxGeometry>
        </mxCell>
        <mxCell id="J-PkQWg8F6zkjIdKTjja-3" style="edgeStyle=orthogonalEdgeStyle;rounded=1;orthogonalLoop=1;jettySize=auto;html=1;strokeColor=default;align=center;verticalAlign=middle;fontFamily=Helvetica;fontSize=11;fontColor=default;labelBackgroundColor=default;elbow=vertical;endArrow=baseDash;endFill=0;endSize=0;curved=0;exitX=0.996;exitY=0.353;exitDx=0;exitDy=0;exitPerimeter=0;entryX=-0.007;entryY=0.317;entryDx=0;entryDy=0;entryPerimeter=0;" edge="1" parent="1" source="J-PkQWg8F6zkjIdKTjja-60" target="J-PkQWg8F6zkjIdKTjja-121">
          <mxGeometry relative="1" as="geometry">
            <mxPoint x="337" y="476" as="sourcePoint" />
            <mxPoint x="567" y="656" as="targetPoint" />
            <Array as="points">
              <mxPoint x="269" y="683" />
            </Array>
          </mxGeometry>
        </mxCell>
        <mxCell id="J-PkQWg8F6zkjIdKTjja-4" style="edgeStyle=orthogonalEdgeStyle;curved=0;rounded=1;orthogonalLoop=1;jettySize=auto;html=1;entryX=0;entryY=0.5;entryDx=0;entryDy=0;strokeColor=default;align=center;verticalAlign=middle;fontFamily=Helvetica;fontSize=11;fontColor=default;labelBackgroundColor=default;elbow=vertical;endArrow=baseDash;endFill=0;endSize=0;exitX=0.996;exitY=0.044;exitDx=0;exitDy=0;exitPerimeter=0;" edge="1" parent="1" source="J-PkQWg8F6zkjIdKTjja-58" target="J-PkQWg8F6zkjIdKTjja-47">
          <mxGeometry relative="1" as="geometry">
            <mxPoint x="267" y="385" as="sourcePoint" />
          </mxGeometry>
        </mxCell>
        <mxCell id="J-PkQWg8F6zkjIdKTjja-5" style="edgeStyle=orthogonalEdgeStyle;curved=0;rounded=1;orthogonalLoop=1;jettySize=auto;html=1;entryX=1;entryY=0.5;entryDx=0;entryDy=0;strokeColor=default;align=center;verticalAlign=middle;fontFamily=Helvetica;fontSize=11;fontColor=default;labelBackgroundColor=default;elbow=vertical;endArrow=baseDash;endFill=0;endSize=0;exitX=-0.011;exitY=0.433;exitDx=0;exitDy=0;exitPerimeter=0;" edge="1" parent="1" source="J-PkQWg8F6zkjIdKTjja-65" target="J-PkQWg8F6zkjIdKTjja-52">
          <mxGeometry relative="1" as="geometry">
            <mxPoint x="189.5" y="510" as="sourcePoint" />
          </mxGeometry>
        </mxCell>
        <mxCell id="J-PkQWg8F6zkjIdKTjja-9" style="edgeStyle=orthogonalEdgeStyle;curved=0;rounded=1;orthogonalLoop=1;jettySize=auto;html=1;exitX=0.5;exitY=0;exitDx=0;exitDy=0;entryX=0.5;entryY=1;entryDx=0;entryDy=0;strokeColor=default;align=center;verticalAlign=middle;fontFamily=Helvetica;fontSize=11;fontColor=default;labelBackgroundColor=default;elbow=vertical;endArrow=baseDash;endFill=0;endSize=0;" edge="1" parent="1" source="J-PkQWg8F6zkjIdKTjja-10" target="J-PkQWg8F6zkjIdKTjja-71">
          <mxGeometry relative="1" as="geometry">
            <mxPoint x="160" y="85" as="targetPoint" />
          </mxGeometry>
        </mxCell>
        <mxCell id="J-PkQWg8F6zkjIdKTjja-10" value="Admin" style="swimlane;fontStyle=0;align=center;verticalAlign=top;childLayout=stackLayout;horizontal=1;startSize=26;horizontalStack=0;resizeParent=1;resizeLast=0;collapsible=1;marginBottom=0;rounded=0;shadow=0;strokeWidth=1;fillColor=#dae8fc;strokeColor=#6c8ebf;" vertex="1" parent="1">
          <mxGeometry x="80" y="188" width="160" height="80" as="geometry">
            <mxRectangle x="340" y="380" width="170" height="26" as="alternateBounds" />
          </mxGeometry>
        </mxCell>
        <mxCell id="J-PkQWg8F6zkjIdKTjja-163" value="-expertise" style="text;html=1;align=left;verticalAlign=middle;resizable=0;points=[];autosize=1;strokeColor=none;fillColor=none;" vertex="1" parent="J-PkQWg8F6zkjIdKTjja-10">
          <mxGeometry y="26" width="160" height="26" as="geometry" />
        </mxCell>
        <mxCell id="J-PkQWg8F6zkjIdKTjja-11" value="" style="endArrow=block;endSize=36;endFill=0;shadow=0;strokeWidth=1;rounded=1;edgeStyle=orthogonalEdgeStyle;elbow=vertical;curved=0;entryX=0.5;entryY=0;entryDx=0;entryDy=0;" edge="1" parent="1" source="J-PkQWg8F6zkjIdKTjja-10" target="J-PkQWg8F6zkjIdKTjja-58">
          <mxGeometry width="160" relative="1" as="geometry">
            <mxPoint x="-220" y="473" as="sourcePoint" />
            <mxPoint x="189.5" y="300" as="targetPoint" />
          </mxGeometry>
        </mxCell>
        <mxCell id="J-PkQWg8F6zkjIdKTjja-12" value="Historic Walk" style="swimlane;fontStyle=0;align=center;verticalAlign=top;childLayout=stackLayout;horizontal=1;startSize=26;horizontalStack=0;resizeParent=1;resizeLast=0;collapsible=1;marginBottom=0;rounded=0;shadow=0;strokeWidth=1;fillColor=#dae8fc;strokeColor=#6c8ebf;" vertex="1" parent="1">
          <mxGeometry x="-288" y="-319" width="160" height="302" as="geometry">
            <mxRectangle x="230" y="140" width="160" height="26" as="alternateBounds" />
          </mxGeometry>
        </mxCell>
        <mxCell id="J-PkQWg8F6zkjIdKTjja-131" value="-historic_points" style="text;html=1;align=left;verticalAlign=middle;resizable=0;points=[];autosize=1;strokeColor=none;fillColor=none;" vertex="1" parent="J-PkQWg8F6zkjIdKTjja-12">
          <mxGeometry y="26" width="160" height="26" as="geometry" />
        </mxCell>
        <mxCell id="J-PkQWg8F6zkjIdKTjja-132" value="-title" style="text;html=1;align=left;verticalAlign=middle;resizable=0;points=[];autosize=1;strokeColor=none;fillColor=none;" vertex="1" parent="J-PkQWg8F6zkjIdKTjja-12">
          <mxGeometry y="52" width="160" height="26" as="geometry" />
        </mxCell>
        <mxCell id="J-PkQWg8F6zkjIdKTjja-133" value="-introductory_text" style="text;html=1;align=left;verticalAlign=middle;resizable=0;points=[];autosize=1;strokeColor=none;fillColor=none;" vertex="1" parent="J-PkQWg8F6zkjIdKTjja-12">
          <mxGeometry y="78" width="160" height="26" as="geometry" />
        </mxCell>
        <mxCell id="J-PkQWg8F6zkjIdKTjja-134" value="-sound_clip" style="text;html=1;align=left;verticalAlign=middle;resizable=0;points=[];autosize=1;strokeColor=none;fillColor=none;" vertex="1" parent="J-PkQWg8F6zkjIdKTjja-12">
          <mxGeometry y="104" width="160" height="26" as="geometry" />
        </mxCell>
        <mxCell id="J-PkQWg8F6zkjIdKTjja-140" value="-contributor" style="text;html=1;align=left;verticalAlign=middle;resizable=0;points=[];autosize=1;strokeColor=none;fillColor=none;" vertex="1" parent="J-PkQWg8F6zkjIdKTjja-12">
          <mxGeometry y="130" width="160" height="26" as="geometry" />
        </mxCell>
        <mxCell id="J-PkQWg8F6zkjIdKTjja-143" value="-approved_by" style="text;html=1;align=left;verticalAlign=middle;resizable=0;points=[];autosize=1;strokeColor=none;fillColor=none;" vertex="1" parent="J-PkQWg8F6zkjIdKTjja-12">
          <mxGeometry y="156" width="160" height="30" as="geometry" />
        </mxCell>
        <mxCell id="J-PkQWg8F6zkjIdKTjja-142" value="-area" style="text;html=1;align=left;verticalAlign=middle;resizable=0;points=[];autosize=1;strokeColor=none;fillColor=none;" vertex="1" parent="J-PkQWg8F6zkjIdKTjja-12">
          <mxGeometry y="186" width="160" height="26" as="geometry" />
        </mxCell>
        <mxCell id="J-PkQWg8F6zkjIdKTjja-13" value="+getHistoricWalks()" style="text;html=1;align=left;verticalAlign=middle;resizable=0;points=[];autosize=1;strokeColor=none;fillColor=none;" vertex="1" parent="J-PkQWg8F6zkjIdKTjja-12">
          <mxGeometry y="212" width="160" height="30" as="geometry" />
        </mxCell>
        <mxCell id="J-PkQWg8F6zkjIdKTjja-14" value="+getSoundClip()" style="text;html=1;align=left;verticalAlign=middle;resizable=0;points=[];autosize=1;strokeColor=none;fillColor=none;" vertex="1" parent="J-PkQWg8F6zkjIdKTjja-12">
          <mxGeometry y="242" width="160" height="30" as="geometry" />
        </mxCell>
        <mxCell id="J-PkQWg8F6zkjIdKTjja-15" value="+getInfo()" style="text;html=1;align=left;verticalAlign=middle;resizable=0;points=[];autosize=1;strokeColor=none;fillColor=none;" vertex="1" parent="J-PkQWg8F6zkjIdKTjja-12">
          <mxGeometry y="272" width="160" height="30" as="geometry" />
        </mxCell>
        <mxCell id="J-PkQWg8F6zkjIdKTjja-16" style="edgeStyle=orthogonalEdgeStyle;rounded=1;orthogonalLoop=1;jettySize=auto;html=1;exitX=0.5;exitY=0;exitDx=0;exitDy=0;entryX=0.5;entryY=1;entryDx=0;entryDy=0;endSize=36;endArrow=diamond;endFill=0;curved=0;" edge="1" parent="1" source="J-PkQWg8F6zkjIdKTjja-17" target="J-PkQWg8F6zkjIdKTjja-12">
          <mxGeometry relative="1" as="geometry">
            <mxPoint x="-318" y="270.9999999999998" as="sourcePoint" />
            <mxPoint x="-318" y="41" as="targetPoint" />
          </mxGeometry>
        </mxCell>
        <mxCell id="J-PkQWg8F6zkjIdKTjja-17" value="Historic Point" style="swimlane;fontStyle=0;align=center;verticalAlign=top;childLayout=stackLayout;horizontal=1;startSize=26;horizontalStack=0;resizeParent=1;resizeLast=0;collapsible=1;marginBottom=0;rounded=0;shadow=0;strokeWidth=1;fillColor=#dae8fc;strokeColor=#6c8ebf;" vertex="1" parent="1">
          <mxGeometry x="-288" y="51" width="160" height="392" as="geometry">
            <mxRectangle x="230" y="140" width="160" height="26" as="alternateBounds" />
          </mxGeometry>
        </mxCell>
        <mxCell id="J-PkQWg8F6zkjIdKTjja-135" value="-title" style="text;html=1;align=left;verticalAlign=middle;resizable=0;points=[];autosize=1;strokeColor=none;fillColor=none;" vertex="1" parent="J-PkQWg8F6zkjIdKTjja-17">
          <mxGeometry y="26" width="160" height="26" as="geometry" />
        </mxCell>
        <mxCell id="J-PkQWg8F6zkjIdKTjja-136" value="-text" style="text;html=1;align=left;verticalAlign=middle;resizable=0;points=[];autosize=1;strokeColor=none;fillColor=none;" vertex="1" parent="J-PkQWg8F6zkjIdKTjja-17">
          <mxGeometry y="52" width="160" height="26" as="geometry" />
        </mxCell>
        <mxCell id="J-PkQWg8F6zkjIdKTjja-137" value="-location" style="text;html=1;align=left;verticalAlign=middle;resizable=0;points=[];autosize=1;strokeColor=none;fillColor=none;" vertex="1" parent="J-PkQWg8F6zkjIdKTjja-17">
          <mxGeometry y="78" width="160" height="26" as="geometry" />
        </mxCell>
        <mxCell id="J-PkQWg8F6zkjIdKTjja-138" value="-photos" style="text;html=1;align=left;verticalAlign=middle;resizable=0;points=[];autosize=1;strokeColor=none;fillColor=none;" vertex="1" parent="J-PkQWg8F6zkjIdKTjja-17">
          <mxGeometry y="104" width="160" height="26" as="geometry" />
        </mxCell>
        <mxCell id="J-PkQWg8F6zkjIdKTjja-139" value="-contributor" style="text;html=1;align=left;verticalAlign=middle;resizable=0;points=[];autosize=1;strokeColor=none;fillColor=none;" vertex="1" parent="J-PkQWg8F6zkjIdKTjja-17">
          <mxGeometry y="130" width="160" height="26" as="geometry" />
        </mxCell>
        <mxCell id="J-PkQWg8F6zkjIdKTjja-144" value="-approved_by" style="text;html=1;align=left;verticalAlign=middle;resizable=0;points=[];autosize=1;strokeColor=none;fillColor=none;" vertex="1" parent="J-PkQWg8F6zkjIdKTjja-17">
          <mxGeometry y="156" width="160" height="30" as="geometry" />
        </mxCell>
        <mxCell id="J-PkQWg8F6zkjIdKTjja-141" value="-area" style="text;html=1;align=left;verticalAlign=middle;resizable=0;points=[];autosize=1;strokeColor=none;fillColor=none;" vertex="1" parent="J-PkQWg8F6zkjIdKTjja-17">
          <mxGeometry y="186" width="160" height="26" as="geometry" />
        </mxCell>
        <mxCell id="J-PkQWg8F6zkjIdKTjja-168" value="" style="endArrow=none;html=1;rounded=0;fontSize=12;startSize=8;endSize=8;curved=1;entryX=1;entryY=-0.033;entryDx=0;entryDy=0;entryPerimeter=0;exitX=0.003;exitY=0.964;exitDx=0;exitDy=0;exitPerimeter=0;" edge="1" parent="J-PkQWg8F6zkjIdKTjja-17" target="J-PkQWg8F6zkjIdKTjja-18">
          <mxGeometry width="50" height="50" relative="1" as="geometry">
            <mxPoint x="-0.0030000000000427463" y="211.17000000000002" as="sourcePoint" />
            <mxPoint x="217.24500000000023" y="211.17000000000002" as="targetPoint" />
          </mxGeometry>
        </mxCell>
        <mxCell id="J-PkQWg8F6zkjIdKTjja-18" value="+getHistoricPoints()" style="text;html=1;align=left;verticalAlign=middle;resizable=0;points=[];autosize=1;strokeColor=none;fillColor=none;" vertex="1" parent="J-PkQWg8F6zkjIdKTjja-17">
          <mxGeometry y="212" width="160" height="30" as="geometry" />
        </mxCell>
        <mxCell id="J-PkQWg8F6zkjIdKTjja-19" value="+getHistoricPoint()" style="text;html=1;align=left;verticalAlign=middle;resizable=0;points=[];autosize=1;strokeColor=none;fillColor=none;" vertex="1" parent="J-PkQWg8F6zkjIdKTjja-17">
          <mxGeometry y="242" width="160" height="30" as="geometry" />
        </mxCell>
        <mxCell id="J-PkQWg8F6zkjIdKTjja-20" value="+getHistoricPointUser()" style="text;html=1;align=left;verticalAlign=middle;resizable=0;points=[];autosize=1;strokeColor=none;fillColor=none;" vertex="1" parent="J-PkQWg8F6zkjIdKTjja-17">
          <mxGeometry y="272" width="160" height="30" as="geometry" />
        </mxCell>
        <mxCell id="J-PkQWg8F6zkjIdKTjja-21" value="+deleteHistoricPoint()" style="text;html=1;align=left;verticalAlign=middle;resizable=0;points=[];autosize=1;strokeColor=none;fillColor=none;" vertex="1" parent="J-PkQWg8F6zkjIdKTjja-17">
          <mxGeometry y="302" width="160" height="30" as="geometry" />
        </mxCell>
        <mxCell id="J-PkQWg8F6zkjIdKTjja-22" value="+setLocation()" style="text;html=1;align=left;verticalAlign=middle;resizable=0;points=[];autosize=1;strokeColor=none;fillColor=none;" vertex="1" parent="J-PkQWg8F6zkjIdKTjja-17">
          <mxGeometry y="332" width="160" height="30" as="geometry" />
        </mxCell>
        <mxCell id="J-PkQWg8F6zkjIdKTjja-23" value="+deletePhotos()" style="text;html=1;align=left;verticalAlign=middle;resizable=0;points=[];autosize=1;strokeColor=none;fillColor=none;" vertex="1" parent="J-PkQWg8F6zkjIdKTjja-17">
          <mxGeometry y="362" width="160" height="30" as="geometry" />
        </mxCell>
        <mxCell id="J-PkQWg8F6zkjIdKTjja-24" style="edgeStyle=orthogonalEdgeStyle;curved=0;rounded=1;orthogonalLoop=1;jettySize=auto;html=1;exitX=0;exitY=0.75;exitDx=0;exitDy=0;entryX=1;entryY=0.75;entryDx=0;entryDy=0;strokeColor=default;align=center;verticalAlign=middle;fontFamily=Helvetica;fontSize=11;fontColor=default;labelBackgroundColor=default;elbow=vertical;endArrow=baseDash;endFill=0;endSize=0;" edge="1" parent="1" target="J-PkQWg8F6zkjIdKTjja-17">
          <mxGeometry relative="1" as="geometry">
            <mxPoint x="70" y="-52.5" as="sourcePoint" />
          </mxGeometry>
        </mxCell>
        <mxCell id="J-PkQWg8F6zkjIdKTjja-36" style="edgeStyle=orthogonalEdgeStyle;rounded=1;orthogonalLoop=1;jettySize=auto;html=1;strokeColor=default;align=center;verticalAlign=middle;fontFamily=Helvetica;fontSize=11;fontColor=default;labelBackgroundColor=default;elbow=vertical;endArrow=baseDash;entryX=0;entryY=0.5;entryDx=0;entryDy=0;endFill=0;endSize=0;curved=0;exitX=0;exitY=0.5;exitDx=0;exitDy=0;" edge="1" parent="1" source="J-PkQWg8F6zkjIdKTjja-38" target="J-PkQWg8F6zkjIdKTjja-17">
          <mxGeometry relative="1" as="geometry">
            <mxPoint x="-210" y="360" as="targetPoint" />
            <Array as="points">
              <mxPoint x="-363" y="572" />
              <mxPoint x="-430" y="572" />
              <mxPoint x="-430" y="247" />
            </Array>
            <mxPoint x="-374" y="526" as="sourcePoint" />
          </mxGeometry>
        </mxCell>
        <mxCell id="J-PkQWg8F6zkjIdKTjja-37" style="edgeStyle=orthogonalEdgeStyle;curved=0;rounded=1;orthogonalLoop=1;jettySize=auto;html=1;strokeColor=default;align=center;verticalAlign=middle;fontFamily=Helvetica;fontSize=11;fontColor=default;labelBackgroundColor=default;elbow=vertical;endArrow=baseDash;endFill=0;endSize=0;exitX=0;exitY=0.5;exitDx=0;exitDy=0;" edge="1" parent="1" source="J-PkQWg8F6zkjIdKTjja-38">
          <mxGeometry relative="1" as="geometry">
            <Array as="points">
              <mxPoint x="-363" y="572" />
              <mxPoint x="-430" y="572" />
              <mxPoint x="-430" y="-209" />
            </Array>
            <mxPoint x="-289" y="-209" as="targetPoint" />
            <mxPoint x="-382" y="520" as="sourcePoint" />
          </mxGeometry>
        </mxCell>
        <mxCell id="J-PkQWg8F6zkjIdKTjja-38" value="Visitings History" style="swimlane;fontStyle=0;align=center;verticalAlign=top;childLayout=stackLayout;horizontal=1;startSize=30;horizontalStack=0;resizeParent=1;resizeLast=0;collapsible=1;marginBottom=0;rounded=0;shadow=0;strokeWidth=1;fillColor=#dae8fc;strokeColor=#6c8ebf;" vertex="1" parent="1">
          <mxGeometry x="-363" y="490" width="160" height="160" as="geometry">
            <mxRectangle x="550" y="140" width="160" height="26" as="alternateBounds" />
          </mxGeometry>
        </mxCell>
        <mxCell id="J-PkQWg8F6zkjIdKTjja-146" value="-user" style="text;html=1;align=left;verticalAlign=middle;resizable=0;points=[];autosize=1;strokeColor=none;fillColor=none;" vertex="1" parent="J-PkQWg8F6zkjIdKTjja-38">
          <mxGeometry y="30" width="160" height="26" as="geometry" />
        </mxCell>
        <mxCell id="J-PkQWg8F6zkjIdKTjja-147" value="-historic_points" style="text;html=1;align=left;verticalAlign=middle;resizable=0;points=[];autosize=1;strokeColor=none;fillColor=none;" vertex="1" parent="J-PkQWg8F6zkjIdKTjja-38">
          <mxGeometry y="56" width="160" height="26" as="geometry" />
        </mxCell>
        <mxCell id="J-PkQWg8F6zkjIdKTjja-167" value="" style="endArrow=none;html=1;rounded=0;fontSize=12;startSize=8;endSize=8;curved=1;entryX=0.995;entryY=-0.006;entryDx=0;entryDy=0;entryPerimeter=0;exitX=0.003;exitY=0.964;exitDx=0;exitDy=0;exitPerimeter=0;" edge="1" parent="J-PkQWg8F6zkjIdKTjja-38" target="J-PkQWg8F6zkjIdKTjja-39">
          <mxGeometry width="50" height="50" relative="1" as="geometry">
            <mxPoint x="-0.0030000000000427463" y="82" as="sourcePoint" />
            <mxPoint x="217.24500000000023" y="82" as="targetPoint" />
          </mxGeometry>
        </mxCell>
        <mxCell id="J-PkQWg8F6zkjIdKTjja-39" value="+getVisitingsHistory()" style="text;html=1;align=left;verticalAlign=middle;resizable=0;points=[];autosize=1;strokeColor=none;fillColor=none;" vertex="1" parent="J-PkQWg8F6zkjIdKTjja-38">
          <mxGeometry y="82" width="160" height="30" as="geometry" />
        </mxCell>
        <mxCell id="J-PkQWg8F6zkjIdKTjja-40" value="+getHistoricPoint()" style="text;html=1;align=left;verticalAlign=middle;resizable=0;points=[];autosize=1;strokeColor=none;fillColor=none;" vertex="1" parent="J-PkQWg8F6zkjIdKTjja-38">
          <mxGeometry y="112" width="160" height="30" as="geometry" />
        </mxCell>
        <mxCell id="J-PkQWg8F6zkjIdKTjja-41" value="Tour" style="swimlane;fontStyle=0;align=center;verticalAlign=top;childLayout=stackLayout;horizontal=1;startSize=30;horizontalStack=0;resizeParent=1;resizeLast=0;collapsible=1;marginBottom=0;rounded=0;shadow=0;strokeWidth=1;fillColor=#dae8fc;strokeColor=#6c8ebf;" vertex="1" parent="1">
          <mxGeometry x="486" y="619" width="160" height="302" as="geometry">
            <mxRectangle x="550" y="140" width="160" height="26" as="alternateBounds" />
          </mxGeometry>
        </mxCell>
        <mxCell id="J-PkQWg8F6zkjIdKTjja-120" value="-points" style="text;html=1;align=left;verticalAlign=middle;resizable=0;points=[];autosize=1;strokeColor=none;fillColor=none;" vertex="1" parent="J-PkQWg8F6zkjIdKTjja-41">
          <mxGeometry y="30" width="160" height="26" as="geometry" />
        </mxCell>
        <mxCell id="J-PkQWg8F6zkjIdKTjja-121" value="-tour_guide" style="text;html=1;align=left;verticalAlign=middle;resizable=0;points=[];autosize=1;strokeColor=none;fillColor=none;" vertex="1" parent="J-PkQWg8F6zkjIdKTjja-41">
          <mxGeometry y="56" width="160" height="26" as="geometry" />
        </mxCell>
        <mxCell id="J-PkQWg8F6zkjIdKTjja-122" value="-seats" style="text;html=1;align=left;verticalAlign=middle;resizable=0;points=[];autosize=1;strokeColor=none;fillColor=none;" vertex="1" parent="J-PkQWg8F6zkjIdKTjja-41">
          <mxGeometry y="82" width="160" height="26" as="geometry" />
        </mxCell>
        <mxCell id="J-PkQWg8F6zkjIdKTjja-123" value="-available_seats" style="text;html=1;align=left;verticalAlign=middle;resizable=0;points=[];autosize=1;strokeColor=none;fillColor=none;" vertex="1" parent="J-PkQWg8F6zkjIdKTjja-41">
          <mxGeometry y="108" width="160" height="26" as="geometry" />
        </mxCell>
        <mxCell id="J-PkQWg8F6zkjIdKTjja-124" value="-title" style="text;html=1;align=left;verticalAlign=middle;resizable=0;points=[];autosize=1;strokeColor=none;fillColor=none;" vertex="1" parent="J-PkQWg8F6zkjIdKTjja-41">
          <mxGeometry y="134" width="160" height="26" as="geometry" />
        </mxCell>
        <mxCell id="J-PkQWg8F6zkjIdKTjja-125" value="-introductory_text" style="text;html=1;align=left;verticalAlign=middle;resizable=0;points=[];autosize=1;strokeColor=none;fillColor=none;" vertex="1" parent="J-PkQWg8F6zkjIdKTjja-41">
          <mxGeometry y="160" width="160" height="26" as="geometry" />
        </mxCell>
        <mxCell id="J-PkQWg8F6zkjIdKTjja-129" value="-duration" style="text;html=1;align=left;verticalAlign=middle;resizable=0;points=[];autosize=1;strokeColor=none;fillColor=none;" vertex="1" parent="J-PkQWg8F6zkjIdKTjja-41">
          <mxGeometry y="186" width="160" height="26" as="geometry" />
        </mxCell>
        <mxCell id="J-PkQWg8F6zkjIdKTjja-164" value="" style="endArrow=none;html=1;rounded=0;fontSize=12;startSize=8;endSize=8;curved=1;exitX=0.003;exitY=0.964;exitDx=0;exitDy=0;exitPerimeter=0;" edge="1" parent="J-PkQWg8F6zkjIdKTjja-41">
          <mxGeometry width="50" height="50" relative="1" as="geometry">
            <mxPoint x="0.9969999999999573" y="212" as="sourcePoint" />
            <mxPoint x="159" y="212" as="targetPoint" />
          </mxGeometry>
        </mxCell>
        <mxCell id="J-PkQWg8F6zkjIdKTjja-42" value="+getTours()" style="text;html=1;align=left;verticalAlign=middle;resizable=0;points=[];autosize=1;strokeColor=none;fillColor=none;" vertex="1" parent="J-PkQWg8F6zkjIdKTjja-41">
          <mxGeometry y="212" width="160" height="30" as="geometry" />
        </mxCell>
        <mxCell id="J-PkQWg8F6zkjIdKTjja-43" value="+getTour()" style="text;html=1;align=left;verticalAlign=middle;resizable=0;points=[];autosize=1;strokeColor=none;fillColor=none;" vertex="1" parent="J-PkQWg8F6zkjIdKTjja-41">
          <mxGeometry y="242" width="160" height="30" as="geometry" />
        </mxCell>
        <mxCell id="J-PkQWg8F6zkjIdKTjja-44" value="+getAvailableSeats()" style="text;html=1;align=left;verticalAlign=middle;resizable=0;points=[];autosize=1;strokeColor=none;fillColor=none;" vertex="1" parent="J-PkQWg8F6zkjIdKTjja-41">
          <mxGeometry y="272" width="160" height="30" as="geometry" />
        </mxCell>
        <mxCell id="J-PkQWg8F6zkjIdKTjja-45" value="Reservation" style="swimlane;fontStyle=0;align=center;verticalAlign=top;childLayout=stackLayout;horizontal=1;startSize=30;horizontalStack=0;resizeParent=1;resizeLast=0;collapsible=1;marginBottom=0;rounded=0;shadow=0;strokeWidth=1;fillColor=#dae8fc;strokeColor=#6c8ebf;" vertex="1" parent="1">
          <mxGeometry x="486" y="1078" width="160" height="138" as="geometry">
            <mxRectangle x="550" y="140" width="160" height="26" as="alternateBounds" />
          </mxGeometry>
        </mxCell>
        <mxCell id="J-PkQWg8F6zkjIdKTjja-126" value="-user" style="text;html=1;align=left;verticalAlign=middle;resizable=0;points=[];autosize=1;strokeColor=none;fillColor=none;" vertex="1" parent="J-PkQWg8F6zkjIdKTjja-45">
          <mxGeometry y="30" width="160" height="26" as="geometry" />
        </mxCell>
        <mxCell id="J-PkQWg8F6zkjIdKTjja-127" value="-seats" style="text;html=1;align=left;verticalAlign=middle;resizable=0;points=[];autosize=1;strokeColor=none;fillColor=none;" vertex="1" parent="J-PkQWg8F6zkjIdKTjja-45">
          <mxGeometry y="56" width="160" height="26" as="geometry" />
        </mxCell>
        <mxCell id="J-PkQWg8F6zkjIdKTjja-128" value="-reservation_id" style="text;html=1;align=left;verticalAlign=middle;resizable=0;points=[];autosize=1;strokeColor=none;fillColor=none;" vertex="1" parent="J-PkQWg8F6zkjIdKTjja-45">
          <mxGeometry y="82" width="160" height="26" as="geometry" />
        </mxCell>
        <mxCell id="J-PkQWg8F6zkjIdKTjja-46" value="+makeReservation()" style="text;html=1;align=left;verticalAlign=middle;resizable=0;points=[];autosize=1;strokeColor=none;fillColor=none;" vertex="1" parent="J-PkQWg8F6zkjIdKTjja-45">
          <mxGeometry y="108" width="160" height="30" as="geometry" />
        </mxCell>
        <mxCell id="J-PkQWg8F6zkjIdKTjja-47" value="Report" style="swimlane;fontStyle=0;align=center;verticalAlign=top;childLayout=stackLayout;horizontal=1;startSize=30;horizontalStack=0;resizeParent=1;resizeLast=0;collapsible=1;marginBottom=0;rounded=0;shadow=0;strokeWidth=1;fillColor=#dae8fc;strokeColor=#6c8ebf;" vertex="1" parent="1">
          <mxGeometry x="483" y="377" width="185" height="224" as="geometry">
            <mxRectangle x="550" y="140" width="160" height="26" as="alternateBounds" />
          </mxGeometry>
        </mxCell>
        <mxCell id="J-PkQWg8F6zkjIdKTjja-170" value="-user" style="text;html=1;align=left;verticalAlign=middle;resizable=0;points=[];autosize=1;strokeColor=none;fillColor=none;" vertex="1" parent="J-PkQWg8F6zkjIdKTjja-47">
          <mxGeometry y="30" width="185" height="26" as="geometry" />
        </mxCell>
        <mxCell id="J-PkQWg8F6zkjIdKTjja-118" value="-historic_point" style="text;html=1;align=left;verticalAlign=middle;resizable=0;points=[];autosize=1;strokeColor=none;fillColor=none;" vertex="1" parent="J-PkQWg8F6zkjIdKTjja-47">
          <mxGeometry y="56" width="185" height="26" as="geometry" />
        </mxCell>
        <mxCell id="J-PkQWg8F6zkjIdKTjja-114" value="-report_reason" style="text;html=1;align=left;verticalAlign=middle;resizable=0;points=[];autosize=1;strokeColor=none;fillColor=none;" vertex="1" parent="J-PkQWg8F6zkjIdKTjja-47">
          <mxGeometry y="82" width="185" height="26" as="geometry" />
        </mxCell>
        <mxCell id="J-PkQWg8F6zkjIdKTjja-115" value="-report_text" style="text;html=1;align=left;verticalAlign=middle;resizable=0;points=[];autosize=1;strokeColor=none;fillColor=none;" vertex="1" parent="J-PkQWg8F6zkjIdKTjja-47">
          <mxGeometry y="108" width="185" height="26" as="geometry" />
        </mxCell>
        <mxCell id="J-PkQWg8F6zkjIdKTjja-165" value="" style="endArrow=none;html=1;rounded=0;fontSize=12;startSize=8;endSize=8;curved=1;entryX=0.997;entryY=-0.022;entryDx=0;entryDy=0;entryPerimeter=0;exitX=-0.006;exitY=-0.025;exitDx=0;exitDy=0;exitPerimeter=0;" edge="1" parent="J-PkQWg8F6zkjIdKTjja-47" source="J-PkQWg8F6zkjIdKTjja-48" target="J-PkQWg8F6zkjIdKTjja-48">
          <mxGeometry width="50" height="50" relative="1" as="geometry">
            <mxPoint x="-0.0030000000000427463" y="107.16999999999996" as="sourcePoint" />
            <mxPoint x="217.24500000000023" y="107.16999999999996" as="targetPoint" />
          </mxGeometry>
        </mxCell>
        <mxCell id="J-PkQWg8F6zkjIdKTjja-48" value="+getHistoricPointsWithReport()" style="text;html=1;align=left;verticalAlign=middle;resizable=0;points=[];autosize=1;strokeColor=none;fillColor=none;" vertex="1" parent="J-PkQWg8F6zkjIdKTjja-47">
          <mxGeometry y="134" width="185" height="30" as="geometry" />
        </mxCell>
        <mxCell id="J-PkQWg8F6zkjIdKTjja-49" value="+getHistoricPointReports" style="text;html=1;align=left;verticalAlign=middle;resizable=0;points=[];autosize=1;strokeColor=none;fillColor=none;" vertex="1" parent="J-PkQWg8F6zkjIdKTjja-47">
          <mxGeometry y="164" width="185" height="30" as="geometry" />
        </mxCell>
        <mxCell id="J-PkQWg8F6zkjIdKTjja-50" value="+deleteReports()" style="text;html=1;align=left;verticalAlign=middle;resizable=0;points=[];autosize=1;strokeColor=none;fillColor=none;" vertex="1" parent="J-PkQWg8F6zkjIdKTjja-47">
          <mxGeometry y="194" width="185" height="30" as="geometry" />
        </mxCell>
        <mxCell id="J-PkQWg8F6zkjIdKTjja-51" style="edgeStyle=orthogonalEdgeStyle;curved=0;rounded=1;orthogonalLoop=1;jettySize=auto;html=1;exitX=0;exitY=0.5;exitDx=0;exitDy=0;entryX=0;entryY=0.5;entryDx=0;entryDy=0;strokeColor=default;align=center;verticalAlign=middle;fontFamily=Helvetica;fontSize=11;fontColor=default;labelBackgroundColor=default;elbow=vertical;endArrow=baseDash;endFill=0;endSize=0;" edge="1" parent="1" source="J-PkQWg8F6zkjIdKTjja-52" target="J-PkQWg8F6zkjIdKTjja-17">
          <mxGeometry relative="1" as="geometry">
            <Array as="points">
              <mxPoint x="-480" y="837" />
              <mxPoint x="-480" y="246" />
            </Array>
          </mxGeometry>
        </mxCell>
        <mxCell id="J-PkQWg8F6zkjIdKTjja-52" value="Rating" style="swimlane;fontStyle=0;align=center;verticalAlign=top;childLayout=stackLayout;horizontal=1;startSize=30;horizontalStack=0;resizeParent=1;resizeLast=0;collapsible=1;marginBottom=0;rounded=0;shadow=0;strokeWidth=1;fillColor=#dae8fc;strokeColor=#6c8ebf;" vertex="1" parent="1">
          <mxGeometry x="-350" y="740" width="190" height="194" as="geometry">
            <mxRectangle x="550" y="140" width="160" height="26" as="alternateBounds" />
          </mxGeometry>
        </mxCell>
        <mxCell id="J-PkQWg8F6zkjIdKTjja-148" value="-user" style="text;html=1;align=left;verticalAlign=middle;resizable=0;points=[];autosize=1;strokeColor=none;fillColor=none;" vertex="1" parent="J-PkQWg8F6zkjIdKTjja-52">
          <mxGeometry y="30" width="190" height="26" as="geometry" />
        </mxCell>
        <mxCell id="J-PkQWg8F6zkjIdKTjja-149" value="-historic_point" style="text;html=1;align=left;verticalAlign=middle;resizable=0;points=[];autosize=1;strokeColor=none;fillColor=none;" vertex="1" parent="J-PkQWg8F6zkjIdKTjja-52">
          <mxGeometry y="56" width="190" height="26" as="geometry" />
        </mxCell>
        <mxCell id="J-PkQWg8F6zkjIdKTjja-150" value="-stars" style="text;html=1;align=left;verticalAlign=middle;resizable=0;points=[];autosize=1;strokeColor=none;fillColor=none;" vertex="1" parent="J-PkQWg8F6zkjIdKTjja-52">
          <mxGeometry y="82" width="190" height="26" as="geometry" />
        </mxCell>
        <mxCell id="J-PkQWg8F6zkjIdKTjja-151" value="-comment" style="text;html=1;align=left;verticalAlign=middle;resizable=0;points=[];autosize=1;strokeColor=none;fillColor=none;" vertex="1" parent="J-PkQWg8F6zkjIdKTjja-52">
          <mxGeometry y="108" width="190" height="26" as="geometry" />
        </mxCell>
        <mxCell id="J-PkQWg8F6zkjIdKTjja-166" value="" style="endArrow=none;html=1;rounded=0;fontSize=12;startSize=8;endSize=8;curved=1;entryX=0.996;entryY=0.011;entryDx=0;entryDy=0;entryPerimeter=0;exitX=0.003;exitY=0.964;exitDx=0;exitDy=0;exitPerimeter=0;" edge="1" parent="J-PkQWg8F6zkjIdKTjja-52" target="J-PkQWg8F6zkjIdKTjja-53">
          <mxGeometry width="50" height="50" relative="1" as="geometry">
            <mxPoint x="-0.0030000000000427463" y="134" as="sourcePoint" />
            <mxPoint x="217.24500000000023" y="134" as="targetPoint" />
          </mxGeometry>
        </mxCell>
        <mxCell id="J-PkQWg8F6zkjIdKTjja-53" value="+hasPreviousRating()" style="text;html=1;align=left;verticalAlign=middle;resizable=0;points=[];autosize=1;strokeColor=none;fillColor=none;" vertex="1" parent="J-PkQWg8F6zkjIdKTjja-52">
          <mxGeometry y="134" width="190" height="30" as="geometry" />
        </mxCell>
        <mxCell id="J-PkQWg8F6zkjIdKTjja-54" value="+getRating()" style="text;html=1;align=left;verticalAlign=middle;resizable=0;points=[];autosize=1;strokeColor=none;fillColor=none;" vertex="1" parent="J-PkQWg8F6zkjIdKTjja-52">
          <mxGeometry y="164" width="190" height="30" as="geometry" />
        </mxCell>
        <mxCell id="J-PkQWg8F6zkjIdKTjja-55" value="" style="endArrow=block;endSize=36;endFill=0;shadow=0;strokeWidth=1;rounded=1;edgeStyle=orthogonalEdgeStyle;elbow=vertical;curved=0;exitX=0.5;exitY=0;exitDx=0;exitDy=0;entryX=0.5;entryY=1;entryDx=0;entryDy=0;" edge="1" parent="1" source="J-PkQWg8F6zkjIdKTjja-45" target="J-PkQWg8F6zkjIdKTjja-41">
          <mxGeometry width="160" relative="1" as="geometry">
            <mxPoint x="251" y="320" as="sourcePoint" />
            <mxPoint x="461" y="530" as="targetPoint" />
          </mxGeometry>
        </mxCell>
        <mxCell id="J-PkQWg8F6zkjIdKTjja-56" value="" style="endArrow=none;html=1;rounded=1;exitX=1;exitY=0.751;exitDx=0;exitDy=0;curved=0;exitPerimeter=0;" edge="1" parent="1" source="J-PkQWg8F6zkjIdKTjja-133">
          <mxGeometry width="50" height="50" relative="1" as="geometry">
            <mxPoint x="-30.160000000000082" y="-221.34000000000003" as="sourcePoint" />
            <mxPoint x="69" y="-221" as="targetPoint" />
            <Array as="points" />
          </mxGeometry>
        </mxCell>
        <mxCell id="J-PkQWg8F6zkjIdKTjja-58" value="User" style="swimlane;fontStyle=0;align=center;verticalAlign=top;childLayout=stackLayout;horizontal=1;startSize=26;horizontalStack=0;resizeParent=1;resizeLast=0;collapsible=1;marginBottom=0;rounded=0;shadow=0;strokeWidth=1;fillColor=#dae8fc;strokeColor=#6c8ebf;" vertex="1" parent="1">
          <mxGeometry x="50.5" y="619" width="219" height="386" as="geometry">
            <mxRectangle x="80" y="300" width="160" height="26" as="alternateBounds" />
          </mxGeometry>
        </mxCell>
        <mxCell id="J-PkQWg8F6zkjIdKTjja-59" value="-full_name" style="text;html=1;align=left;verticalAlign=middle;resizable=0;points=[];autosize=1;strokeColor=none;fillColor=none;fontSize=12;" vertex="1" parent="J-PkQWg8F6zkjIdKTjja-58">
          <mxGeometry y="26" width="219" height="30" as="geometry" />
        </mxCell>
        <mxCell id="J-PkQWg8F6zkjIdKTjja-60" value="-username" style="text;html=1;align=left;verticalAlign=middle;resizable=0;points=[];autosize=1;strokeColor=none;fillColor=none;fontSize=12;" vertex="1" parent="J-PkQWg8F6zkjIdKTjja-58">
          <mxGeometry y="56" width="219" height="30" as="geometry" />
        </mxCell>
        <mxCell id="J-PkQWg8F6zkjIdKTjja-61" value="-password" style="text;html=1;align=left;verticalAlign=middle;resizable=0;points=[];autosize=1;strokeColor=none;fillColor=none;fontSize=12;" vertex="1" parent="J-PkQWg8F6zkjIdKTjja-58">
          <mxGeometry y="86" width="219" height="30" as="geometry" />
        </mxCell>
        <mxCell id="J-PkQWg8F6zkjIdKTjja-62" value="-email" style="text;html=1;align=left;verticalAlign=middle;resizable=0;points=[];autosize=1;strokeColor=none;fillColor=none;fontSize=12;" vertex="1" parent="J-PkQWg8F6zkjIdKTjja-58">
          <mxGeometry y="116" width="219" height="30" as="geometry" />
        </mxCell>
        <mxCell id="J-PkQWg8F6zkjIdKTjja-63" value="-phone_number" style="text;html=1;align=left;verticalAlign=middle;resizable=0;points=[];autosize=1;strokeColor=none;fillColor=none;fontSize=12;" vertex="1" parent="J-PkQWg8F6zkjIdKTjja-58">
          <mxGeometry y="146" width="219" height="30" as="geometry" />
        </mxCell>
        <mxCell id="J-PkQWg8F6zkjIdKTjja-64" value="-adress" style="text;html=1;align=left;verticalAlign=middle;resizable=0;points=[];autosize=1;strokeColor=none;fillColor=none;fontSize=12;" vertex="1" parent="J-PkQWg8F6zkjIdKTjja-58">
          <mxGeometry y="176" width="219" height="30" as="geometry" />
        </mxCell>
        <mxCell id="J-PkQWg8F6zkjIdKTjja-65" value="-country" style="text;html=1;align=left;verticalAlign=middle;resizable=0;points=[];autosize=1;strokeColor=none;fillColor=none;fontSize=12;" vertex="1" parent="J-PkQWg8F6zkjIdKTjja-58">
          <mxGeometry y="206" width="219" height="30" as="geometry" />
        </mxCell>
        <mxCell id="J-PkQWg8F6zkjIdKTjja-159" value="-birth_date" style="text;html=1;align=left;verticalAlign=middle;resizable=0;points=[];autosize=1;strokeColor=none;fillColor=none;fontSize=12;" vertex="1" parent="J-PkQWg8F6zkjIdKTjja-58">
          <mxGeometry y="236" width="219" height="30" as="geometry" />
        </mxCell>
        <mxCell id="J-PkQWg8F6zkjIdKTjja-67" value="-interests" style="text;html=1;align=left;verticalAlign=middle;resizable=0;points=[];autosize=1;strokeColor=none;fillColor=none;fontSize=12;" vertex="1" parent="J-PkQWg8F6zkjIdKTjja-58">
          <mxGeometry y="266" width="219" height="30" as="geometry" />
        </mxCell>
        <mxCell id="J-PkQWg8F6zkjIdKTjja-66" value="-notifications" style="text;html=1;align=left;verticalAlign=middle;resizable=0;points=[];autosize=1;strokeColor=none;fillColor=none;fontSize=12;" vertex="1" parent="J-PkQWg8F6zkjIdKTjja-58">
          <mxGeometry y="296" width="219" height="26" as="geometry" />
        </mxCell>
        <mxCell id="J-PkQWg8F6zkjIdKTjja-70" value="" style="endArrow=none;html=1;rounded=0;fontSize=12;startSize=8;endSize=8;curved=1;entryX=0.995;entryY=0.964;entryDx=0;entryDy=0;entryPerimeter=0;exitX=0.003;exitY=0.964;exitDx=0;exitDy=0;exitPerimeter=0;" edge="1" parent="J-PkQWg8F6zkjIdKTjja-58">
          <mxGeometry width="50" height="50" relative="1" as="geometry">
            <mxPoint x="-0.0030000000000746097" y="326.00000000000006" as="sourcePoint" />
            <mxPoint x="217.2450000000002" y="326.00000000000006" as="targetPoint" />
          </mxGeometry>
        </mxCell>
        <mxCell id="J-PkQWg8F6zkjIdKTjja-68" value="+getUserLocation()" style="text;html=1;align=left;verticalAlign=middle;resizable=0;points=[];autosize=1;strokeColor=none;fillColor=none;" vertex="1" parent="J-PkQWg8F6zkjIdKTjja-58">
          <mxGeometry y="322" width="219" height="30" as="geometry" />
        </mxCell>
        <mxCell id="J-PkQWg8F6zkjIdKTjja-69" value="+getUserCity()" style="text;html=1;align=left;verticalAlign=middle;resizable=0;points=[];autosize=1;strokeColor=none;fillColor=none;" vertex="1" parent="J-PkQWg8F6zkjIdKTjja-58">
          <mxGeometry y="352" width="219" height="30" as="geometry" />
        </mxCell>
        <mxCell id="J-PkQWg8F6zkjIdKTjja-71" value="Contribution" style="swimlane;fontStyle=0;align=center;verticalAlign=top;childLayout=stackLayout;horizontal=1;startSize=30;horizontalStack=0;resizeParent=1;resizeLast=0;collapsible=1;marginBottom=0;rounded=0;shadow=0;strokeWidth=1;fillColor=#dae8fc;strokeColor=#6c8ebf;" vertex="1" parent="1">
          <mxGeometry x="70" y="-562" width="180" height="610" as="geometry">
            <mxRectangle x="550" y="140" width="160" height="26" as="alternateBounds" />
          </mxGeometry>
        </mxCell>
        <mxCell id="J-PkQWg8F6zkjIdKTjja-72" value="-type" style="text;html=1;align=left;verticalAlign=middle;resizable=0;points=[];autosize=1;strokeColor=none;fillColor=none;" vertex="1" parent="J-PkQWg8F6zkjIdKTjja-71">
          <mxGeometry y="30" width="180" height="30" as="geometry" />
        </mxCell>
        <mxCell id="J-PkQWg8F6zkjIdKTjja-73" value="-description" style="text;html=1;align=left;verticalAlign=middle;resizable=0;points=[];autosize=1;strokeColor=none;fillColor=none;" vertex="1" parent="J-PkQWg8F6zkjIdKTjja-71">
          <mxGeometry y="60" width="180" height="30" as="geometry" />
        </mxCell>
        <mxCell id="J-PkQWg8F6zkjIdKTjja-74" value="-photos" style="text;html=1;align=left;verticalAlign=middle;resizable=0;points=[];autosize=1;strokeColor=none;fillColor=none;" vertex="1" parent="J-PkQWg8F6zkjIdKTjja-71">
          <mxGeometry y="90" width="180" height="26" as="geometry" />
        </mxCell>
        <mxCell id="J-PkQWg8F6zkjIdKTjja-75" value="-name" style="text;html=1;align=left;verticalAlign=middle;resizable=0;points=[];autosize=1;strokeColor=none;fillColor=none;" vertex="1" parent="J-PkQWg8F6zkjIdKTjja-71">
          <mxGeometry y="116" width="180" height="30" as="geometry" />
        </mxCell>
        <mxCell id="J-PkQWg8F6zkjIdKTjja-76" value="-historic_points" style="text;html=1;align=left;verticalAlign=middle;resizable=0;points=[];autosize=1;strokeColor=none;fillColor=none;" vertex="1" parent="J-PkQWg8F6zkjIdKTjja-71">
          <mxGeometry y="146" width="180" height="30" as="geometry" />
        </mxCell>
        <mxCell id="J-PkQWg8F6zkjIdKTjja-77" value="-location" style="text;html=1;align=left;verticalAlign=middle;resizable=0;points=[];autosize=1;strokeColor=none;fillColor=none;" vertex="1" parent="J-PkQWg8F6zkjIdKTjja-71">
          <mxGeometry y="176" width="180" height="30" as="geometry" />
        </mxCell>
        <mxCell id="J-PkQWg8F6zkjIdKTjja-78" value="-sound_clips" style="text;html=1;align=left;verticalAlign=middle;resizable=0;points=[];autosize=1;strokeColor=none;fillColor=none;" vertex="1" parent="J-PkQWg8F6zkjIdKTjja-71">
          <mxGeometry y="206" width="180" height="30" as="geometry" />
        </mxCell>
        <mxCell id="J-PkQWg8F6zkjIdKTjja-79" value="-author" style="text;html=1;align=left;verticalAlign=middle;resizable=0;points=[];autosize=1;strokeColor=none;fillColor=none;" vertex="1" parent="J-PkQWg8F6zkjIdKTjja-71">
          <mxGeometry y="236" width="180" height="30" as="geometry" />
        </mxCell>
        <mxCell id="J-PkQWg8F6zkjIdKTjja-80" value="-approved_by" style="text;html=1;align=left;verticalAlign=middle;resizable=0;points=[];autosize=1;strokeColor=none;fillColor=none;" vertex="1" parent="J-PkQWg8F6zkjIdKTjja-71">
          <mxGeometry y="266" width="180" height="30" as="geometry" />
        </mxCell>
        <mxCell id="J-PkQWg8F6zkjIdKTjja-81" value="" style="endArrow=none;html=1;rounded=0;entryX=1;entryY=0.108;entryDx=0;entryDy=0;entryPerimeter=0;exitX=0.007;exitY=0.15;exitDx=0;exitDy=0;exitPerimeter=0;" edge="1" parent="J-PkQWg8F6zkjIdKTjja-71" source="J-PkQWg8F6zkjIdKTjja-82" target="J-PkQWg8F6zkjIdKTjja-82">
          <mxGeometry width="50" height="50" relative="1" as="geometry">
            <mxPoint x="20" y="180" as="sourcePoint" />
            <mxPoint x="120" y="180" as="targetPoint" />
          </mxGeometry>
        </mxCell>
        <mxCell id="J-PkQWg8F6zkjIdKTjja-82" value="+getContributions()" style="text;html=1;align=left;verticalAlign=bottom;resizable=0;points=[];autosize=1;strokeColor=none;fillColor=none;labelPosition=center;verticalLabelPosition=middle;" vertex="1" parent="J-PkQWg8F6zkjIdKTjja-71">
          <mxGeometry y="296" width="180" height="30" as="geometry" />
        </mxCell>
        <mxCell id="J-PkQWg8F6zkjIdKTjja-83" value="+getCitiesWithContributions()" style="text;html=1;align=left;verticalAlign=middle;resizable=0;points=[];autosize=1;strokeColor=none;fillColor=none;" vertex="1" parent="J-PkQWg8F6zkjIdKTjja-71">
          <mxGeometry y="326" width="180" height="30" as="geometry" />
        </mxCell>
        <mxCell id="J-PkQWg8F6zkjIdKTjja-84" value="+getContribution()" style="text;html=1;align=left;verticalAlign=middle;resizable=0;points=[];autosize=1;strokeColor=none;fillColor=none;" vertex="1" parent="J-PkQWg8F6zkjIdKTjja-71">
          <mxGeometry y="356" width="180" height="30" as="geometry" />
        </mxCell>
        <mxCell id="J-PkQWg8F6zkjIdKTjja-85" value="+isHistoricPoint()" style="text;html=1;align=left;verticalAlign=middle;resizable=0;points=[];autosize=1;strokeColor=none;fillColor=none;" vertex="1" parent="J-PkQWg8F6zkjIdKTjja-71">
          <mxGeometry y="386" width="180" height="30" as="geometry" />
        </mxCell>
        <mxCell id="J-PkQWg8F6zkjIdKTjja-86" value="+getContrinutionUser()" style="text;html=1;align=left;verticalAlign=middle;resizable=0;points=[];autosize=1;strokeColor=none;fillColor=none;" vertex="1" parent="J-PkQWg8F6zkjIdKTjja-71">
          <mxGeometry y="416" width="180" height="30" as="geometry" />
        </mxCell>
        <mxCell id="J-PkQWg8F6zkjIdKTjja-87" value="+historicPointsExists()" style="text;html=1;align=left;verticalAlign=middle;resizable=0;points=[];autosize=1;strokeColor=none;fillColor=none;" vertex="1" parent="J-PkQWg8F6zkjIdKTjja-71">
          <mxGeometry y="446" width="180" height="30" as="geometry" />
        </mxCell>
        <mxCell id="J-PkQWg8F6zkjIdKTjja-88" value="+addHistoricPoint()" style="text;html=1;align=left;verticalAlign=middle;resizable=0;points=[];autosize=1;strokeColor=none;fillColor=none;" vertex="1" parent="J-PkQWg8F6zkjIdKTjja-71">
          <mxGeometry y="476" width="180" height="30" as="geometry" />
        </mxCell>
        <mxCell id="J-PkQWg8F6zkjIdKTjja-89" value="+deleteHistoricPoint()" style="text;html=1;align=left;verticalAlign=middle;resizable=0;points=[];autosize=1;strokeColor=none;fillColor=none;" vertex="1" parent="J-PkQWg8F6zkjIdKTjja-71">
          <mxGeometry y="506" width="180" height="30" as="geometry" />
        </mxCell>
        <mxCell id="J-PkQWg8F6zkjIdKTjja-90" value="+saveContribution()" style="text;html=1;align=left;verticalAlign=middle;resizable=0;points=[];autosize=1;strokeColor=none;fillColor=none;" vertex="1" parent="J-PkQWg8F6zkjIdKTjja-71">
          <mxGeometry y="536" width="180" height="30" as="geometry" />
        </mxCell>
        <mxCell id="J-PkQWg8F6zkjIdKTjja-91" value="+addSoundClip()" style="text;html=1;align=left;verticalAlign=middle;resizable=0;points=[];autosize=1;strokeColor=none;fillColor=none;" vertex="1" parent="J-PkQWg8F6zkjIdKTjja-71">
          <mxGeometry y="566" width="180" height="30" as="geometry" />
        </mxCell>
        <mxCell id="J-PkQWg8F6zkjIdKTjja-162" style="edgeStyle=none;curved=1;rounded=0;orthogonalLoop=1;jettySize=auto;html=1;exitX=0.5;exitY=0;exitDx=0;exitDy=0;fontSize=12;startSize=8;endSize=8;endArrow=none;endFill=0;entryX=0.5;entryY=1;entryDx=0;entryDy=0;" edge="1" parent="1" source="J-PkQWg8F6zkjIdKTjja-152" target="J-PkQWg8F6zkjIdKTjja-58">
          <mxGeometry relative="1" as="geometry">
            <mxPoint x="161" y="689" as="targetPoint" />
          </mxGeometry>
        </mxCell>
        <mxCell id="J-PkQWg8F6zkjIdKTjja-152" value="Notification" style="swimlane;fontStyle=0;align=center;verticalAlign=top;childLayout=stackLayout;horizontal=1;startSize=30;horizontalStack=0;resizeParent=1;resizeLast=0;collapsible=1;marginBottom=0;rounded=0;shadow=0;strokeWidth=1;fillColor=#dae8fc;strokeColor=#6c8ebf;" vertex="1" parent="1">
          <mxGeometry x="67.5" y="1087" width="185" height="138" as="geometry">
            <mxRectangle x="550" y="140" width="160" height="26" as="alternateBounds" />
          </mxGeometry>
        </mxCell>
        <mxCell id="J-PkQWg8F6zkjIdKTjja-153" value="-user" style="text;html=1;align=left;verticalAlign=middle;resizable=0;points=[];autosize=1;strokeColor=none;fillColor=none;" vertex="1" parent="J-PkQWg8F6zkjIdKTjja-152">
          <mxGeometry y="30" width="185" height="26" as="geometry" />
        </mxCell>
        <mxCell id="J-PkQWg8F6zkjIdKTjja-154" value="-title" style="text;html=1;align=left;verticalAlign=middle;resizable=0;points=[];autosize=1;strokeColor=none;fillColor=none;" vertex="1" parent="J-PkQWg8F6zkjIdKTjja-152">
          <mxGeometry y="56" width="185" height="26" as="geometry" />
        </mxCell>
        <mxCell id="J-PkQWg8F6zkjIdKTjja-155" value="-text" style="text;html=1;align=left;verticalAlign=middle;resizable=0;points=[];autosize=1;strokeColor=none;fillColor=none;" vertex="1" parent="J-PkQWg8F6zkjIdKTjja-152">
          <mxGeometry y="82" width="185" height="26" as="geometry" />
        </mxCell>
        <mxCell id="J-PkQWg8F6zkjIdKTjja-161" value="-date" style="text;html=1;align=left;verticalAlign=middle;resizable=0;points=[];autosize=1;strokeColor=none;fillColor=none;fontSize=12;" vertex="1" parent="J-PkQWg8F6zkjIdKTjja-152">
          <mxGeometry y="108" width="185" height="26" as="geometry" />
        </mxCell>
        <mxCell id="J-PkQWg8F6zkjIdKTjja-169" value="" style="endArrow=none;html=1;rounded=0;fontSize=12;startSize=8;endSize=8;curved=1;exitX=0.003;exitY=0.964;exitDx=0;exitDy=0;exitPerimeter=0;" edge="1" parent="1">
          <mxGeometry width="50" height="50" relative="1" as="geometry">
            <mxPoint x="-288.00300000000004" y="-105" as="sourcePoint" />
            <mxPoint x="-128" y="-105" as="targetPoint" />
          </mxGeometry>
        </mxCell>
      </root>
    </mxGraphModel>
  </diagram>
</mxfile>
